<svg xmlns="http://www.w3.org/2000/svg" xmlns:xlink="http://www.w3.org/1999/xlink" width="500" zoomAndPan="magnify" viewBox="0 0 375 374.999991" height="500" preserveAspectRatio="xMidYMid meet" version="1.0"><defs><g/><clipPath id="d99bb38e50"><rect x="0" width="211" y="0" height="127"/></clipPath></defs><rect x="-37.5" width="450" fill="#ffffff" y="-37.499999" height="449.999989" fill-opacity="1"/><rect x="-37.5" width="450" fill="#ffffff" y="-37.499999" height="449.999989" fill-opacity="1"/><path stroke-linecap="butt" transform="matrix(0.75, 0, 0, 0.75, 43.185266, 224.389615)" fill="none" stroke-linejoin="miter" d="M -0.00222922 0.501347 L 384.841546 0.501347 " stroke="#ffffff" stroke-width="1" stroke-opacity="1" stroke-miterlimit="4"/><g transform="matrix(1, 0, 0, 1, 83, 117)"><g clip-path="url(#d99bb38e50)"><g fill="#ffffff" fill-opacity="1"><g transform="translate(0.220167, 93.315298)"><g><path d="M 36.953125 1.28125 C 32.628906 1.28125 28.554688 0.269531 24.734375 -1.75 C 20.910156 -3.769531 17.53125 -6.53125 14.59375 -10.03125 C 11.65625 -13.539062 9.375 -17.628906 7.75 -22.296875 C 6.125 -26.972656 5.3125 -31.960938 5.3125 -37.265625 C 5.3125 -42.578125 6.125 -47.566406 7.75 -52.234375 C 9.375 -56.910156 11.65625 -61 14.59375 -64.5 C 17.53125 -68.007812 20.910156 -70.769531 24.734375 -72.78125 C 28.554688 -74.800781 32.628906 -75.8125 36.953125 -75.8125 C 39.148438 -75.8125 41.34375 -75.5625 43.53125 -75.0625 C 45.726562 -74.570312 47.816406 -73.832031 49.796875 -72.84375 L 49.484375 -73.0625 C 51.460938 -72.207031 53.300781 -71.300781 55 -70.34375 C 56.695312 -69.394531 58.0625 -68.597656 59.09375 -67.953125 C 60.125 -67.316406 60.640625 -67 60.640625 -67 L 62.328125 -60 L 60.953125 -59.140625 C 59.460938 -62.472656 57.441406 -65.253906 54.890625 -67.484375 C 52.347656 -69.710938 49.519531 -71.390625 46.40625 -72.515625 C 43.289062 -73.648438 40.140625 -74.21875 36.953125 -74.21875 C 33.128906 -74.21875 29.535156 -73.207031 26.171875 -71.1875 C 22.804688 -69.175781 19.847656 -66.414062 17.296875 -62.90625 C 14.753906 -59.40625 12.753906 -55.460938 11.296875 -51.078125 C 9.847656 -46.691406 9.125 -42.085938 9.125 -37.265625 C 9.125 -32.734375 9.78125 -28.363281 11.09375 -24.15625 C 12.40625 -19.945312 14.242188 -16.160156 16.609375 -12.796875 C 18.984375 -9.429688 21.707031 -6.648438 24.78125 -4.453125 C 27.863281 -2.265625 31.175781 -0.921875 34.71875 -0.421875 C 35.070312 -0.347656 35.441406 -0.3125 35.828125 -0.3125 C 36.222656 -0.3125 36.597656 -0.3125 36.953125 -0.3125 C 39.859375 -0.3125 42.632812 -0.804688 45.28125 -1.796875 C 47.9375 -2.796875 50.4375 -4.179688 52.78125 -5.953125 C 56.8125 -9.066406 58.828125 -13.207031 58.828125 -18.375 L 58.828125 -26.125 C 58.828125 -27.113281 58.15625 -27.765625 56.8125 -28.078125 C 55.46875 -28.398438 54.300781 -28.597656 53.3125 -28.671875 L 52.03125 -28.671875 L 52.03125 -30.15625 L 69.34375 -30.15625 L 69.34375 -28.671875 L 68.0625 -28.671875 C 67.144531 -28.597656 66.015625 -28.398438 64.671875 -28.078125 C 63.328125 -27.765625 62.65625 -27.113281 62.65625 -26.125 L 62.65625 -9.875 C 62.65625 -9.875 61.960938 -9.378906 60.578125 -8.390625 C 59.203125 -7.398438 57.429688 -6.226562 55.265625 -4.875 C 53.109375 -3.53125 50.863281 -2.363281 48.53125 -1.375 C 44.914062 0.394531 41.054688 1.28125 36.953125 1.28125 Z M 36.953125 1.28125 "/></g></g></g><g fill="#ffffff" fill-opacity="1"><g transform="translate(74.870393, 93.315298)"><g><path d="M 5.3125 -1.484375 C 6.800781 -1.484375 8.335938 -1.609375 9.921875 -1.859375 C 11.515625 -2.109375 12.5625 -2.796875 13.0625 -3.921875 L 40.671875 -75.078125 L 42.265625 -75.078125 L 42.265625 -74.96875 L 69.875 -3.71875 C 70.4375 -2.800781 71.351562 -2.195312 72.625 -1.90625 C 73.90625 -1.625 75.320312 -1.484375 76.875 -1.484375 L 76.875 0 L 59.46875 0 L 59.46875 -1.484375 C 61.164062 -1.484375 62.722656 -1.640625 64.140625 -1.953125 C 65.554688 -2.273438 66.050781 -2.96875 65.625 -4.03125 L 54.6875 -32.5 L 25.796875 -32.5 L 14.765625 -4.03125 L 14.859375 -4.03125 C 14.578125 -3.320312 14.859375 -2.773438 15.703125 -2.390625 C 16.554688 -2.003906 17.65625 -1.753906 19 -1.640625 C 20.351562 -1.535156 21.59375 -1.484375 22.71875 -1.484375 L 22.71875 0 L 5.3125 0 Z M 54.046875 -33.984375 L 40.25 -69.65625 L 26.4375 -33.984375 Z M 54.046875 -33.984375 "/></g></g></g><g fill="#ffffff" fill-opacity="1"><g transform="translate(157.05997, 93.315298)"><g><path d="M 5.3125 -1.484375 L 6.578125 -1.484375 C 7.566406 -1.554688 8.734375 -1.769531 10.078125 -2.125 C 11.429688 -2.476562 12.109375 -3.113281 12.109375 -4.03125 L 12.109375 -70.828125 C 12.109375 -71.460938 11.769531 -71.957031 11.09375 -72.3125 C 10.425781 -72.664062 9.628906 -72.910156 8.703125 -73.046875 C 7.785156 -73.191406 6.988281 -73.28125 6.3125 -73.3125 C 5.644531 -73.351562 5.3125 -73.375 5.3125 -73.375 L 5.3125 -74.96875 L 46.40625 -74.96875 L 46.40625 -68.484375 L 45.546875 -68.484375 C 45.484375 -68.628906 45.203125 -69.109375 44.703125 -69.921875 C 44.210938 -70.734375 43.613281 -71.507812 42.90625 -72.25 C 42.195312 -73 41.453125 -73.375 40.671875 -73.375 L 15.921875 -73.375 L 15.921875 -42.375 L 40.984375 -42.375 C 41.554688 -42.375 42.070312 -42.796875 42.53125 -43.640625 C 42.988281 -44.492188 43.21875 -44.921875 43.21875 -44.921875 L 43.96875 -44.921875 L 43.96875 -38.234375 L 43.21875 -38.234375 C 43.21875 -38.234375 42.988281 -38.65625 42.53125 -39.5 C 42.070312 -40.351562 41.554688 -40.78125 40.984375 -40.78125 L 15.921875 -40.78125 L 15.921875 -4.03125 C 15.921875 -3.113281 16.59375 -2.476562 17.9375 -2.125 C 19.289062 -1.769531 20.425781 -1.554688 21.34375 -1.484375 L 22.71875 -1.484375 L 22.71875 0 L 5.3125 0 Z M 5.3125 -1.484375 "/></g></g></g></g></g><g fill="#ffffff" fill-opacity="1"><g transform="translate(85.488279, 256.691527)"><g><path d="M 6.96875 -0.9375 L 7.234375 -0.9375 L 6.640625 0 L 0.75 0 L 0.75 -0.203125 L 0.9375 -0.203125 C 1.070312 -0.210938 1.226562 -0.242188 1.40625 -0.296875 C 1.59375 -0.347656 1.6875 -0.4375 1.6875 -0.5625 L 1.6875 -10.015625 C 1.6875 -10.109375 1.640625 -10.179688 1.546875 -10.234375 C 1.453125 -10.285156 1.34375 -10.316406 1.21875 -10.328125 C 1.09375 -10.347656 0.984375 -10.359375 0.890625 -10.359375 C 0.796875 -10.367188 0.75 -10.375 0.75 -10.375 L 0.75 -10.609375 L 6.546875 -10.609375 L 6.546875 -9.6875 L 6.4375 -9.6875 C 6.425781 -9.707031 6.382812 -9.773438 6.3125 -9.890625 C 6.238281 -10.003906 6.148438 -10.113281 6.046875 -10.21875 C 5.953125 -10.320312 5.851562 -10.375 5.75 -10.375 L 2.234375 -10.375 L 2.234375 -6 L 5.78125 -6 C 5.851562 -6 5.921875 -6.054688 5.984375 -6.171875 C 6.054688 -6.296875 6.09375 -6.359375 6.09375 -6.359375 L 6.1875 -6.359375 L 6.1875 -5.421875 L 6.09375 -5.421875 C 6.09375 -5.421875 6.054688 -5.476562 5.984375 -5.59375 C 5.921875 -5.71875 5.851562 -5.78125 5.78125 -5.78125 L 2.234375 -5.78125 L 2.234375 -0.203125 L 6.078125 -0.203125 C 6.222656 -0.203125 6.359375 -0.257812 6.484375 -0.375 C 6.617188 -0.488281 6.726562 -0.601562 6.8125 -0.71875 C 6.90625 -0.84375 6.957031 -0.914062 6.96875 -0.9375 Z M 6.96875 -0.9375 "/></g></g></g><g fill="#ffffff" fill-opacity="1"><g transform="translate(93.462087, 256.691527)"><g><path d="M 3.234375 0.078125 C 2.960938 -0.00390625 2.707031 -0.109375 2.46875 -0.234375 C 2.4375 -0.253906 2.398438 -0.273438 2.359375 -0.296875 C 2.316406 -0.316406 2.273438 -0.335938 2.234375 -0.359375 C 1.890625 -0.535156 1.601562 -0.691406 1.375 -0.828125 C 1.144531 -0.972656 1.023438 -1.050781 1.015625 -1.0625 L 0.75 -2.203125 L 0.75 -2.21875 L 0.9375 -2.328125 C 0.9375 -2.328125 0.9375 -2.320312 0.9375 -2.3125 C 1.144531 -1.925781 1.382812 -1.578125 1.65625 -1.265625 C 1.925781 -0.960938 2.21875 -0.710938 2.53125 -0.515625 C 2.96875 -0.242188 3.4375 -0.0820312 3.9375 -0.03125 C 4.445312 0.0078125 4.929688 -0.0664062 5.390625 -0.265625 C 5.859375 -0.460938 6.234375 -0.796875 6.515625 -1.265625 C 6.628906 -1.460938 6.722656 -1.664062 6.796875 -1.875 C 6.867188 -2.082031 6.90625 -2.289062 6.90625 -2.5 C 6.90625 -2.738281 6.847656 -2.972656 6.734375 -3.203125 C 6.617188 -3.429688 6.46875 -3.640625 6.28125 -3.828125 C 6.15625 -3.960938 6.015625 -4.078125 5.859375 -4.171875 C 5.703125 -4.273438 5.539062 -4.367188 5.375 -4.453125 L 2.8125 -5.640625 C 2.351562 -5.867188 1.988281 -6.191406 1.71875 -6.609375 C 1.457031 -7.035156 1.328125 -7.492188 1.328125 -7.984375 L 1.328125 -8.125 C 1.347656 -8.582031 1.472656 -8.992188 1.703125 -9.359375 C 1.941406 -9.734375 2.25 -10.03125 2.625 -10.25 C 3.007812 -10.46875 3.4375 -10.585938 3.90625 -10.609375 C 3.945312 -10.617188 3.992188 -10.625 4.046875 -10.625 C 4.109375 -10.625 4.171875 -10.625 4.234375 -10.625 C 4.472656 -10.625 4.707031 -10.582031 4.9375 -10.5 C 5.175781 -10.414062 5.40625 -10.316406 5.625 -10.203125 C 5.664062 -10.179688 5.703125 -10.160156 5.734375 -10.140625 C 5.773438 -10.117188 5.8125 -10.097656 5.84375 -10.078125 C 6.132812 -9.953125 6.382812 -9.820312 6.59375 -9.6875 C 6.8125 -9.5625 6.925781 -9.492188 6.9375 -9.484375 L 7.109375 -8.71875 L 6.9375 -8.609375 C 6.613281 -9.140625 6.210938 -9.554688 5.734375 -9.859375 C 5.265625 -10.171875 4.765625 -10.335938 4.234375 -10.359375 C 4.128906 -10.367188 4.03125 -10.367188 3.9375 -10.359375 C 3.570312 -10.335938 3.222656 -10.21875 2.890625 -10 C 2.554688 -9.78125 2.28125 -9.5 2.0625 -9.15625 C 1.84375 -8.820312 1.722656 -8.46875 1.703125 -8.09375 L 1.703125 -8 C 1.703125 -7.601562 1.832031 -7.238281 2.09375 -6.90625 C 2.363281 -6.570312 2.6875 -6.3125 3.0625 -6.125 L 5.65625 -4.921875 C 6.1875 -4.671875 6.59375 -4.328125 6.875 -3.890625 C 7.164062 -3.460938 7.3125 -3 7.3125 -2.5 C 7.3125 -2 7.164062 -1.539062 6.875 -1.125 C 6.59375 -0.71875 6.21875 -0.394531 5.75 -0.15625 C 4.945312 0.25 4.109375 0.328125 3.234375 0.078125 Z M 3.234375 0.078125 "/></g></g></g><g fill="#ffffff" fill-opacity="1"><g transform="translate(101.525823, 256.691527)"><g><path d="M 3.875 -0.21875 C 4.132812 -0.21875 4.359375 -0.242188 4.546875 -0.296875 C 4.734375 -0.359375 4.828125 -0.453125 4.828125 -0.578125 L 4.828125 -10.375 L 1.5625 -10.375 C 1.445312 -10.375 1.335938 -10.320312 1.234375 -10.21875 C 1.140625 -10.113281 1.054688 -10.003906 0.984375 -9.890625 C 0.921875 -9.773438 0.882812 -9.707031 0.875 -9.6875 L 0.75 -9.6875 L 0.75 -10.609375 L 9.4375 -10.609375 L 9.4375 -9.6875 L 9.3125 -9.6875 C 9.300781 -9.707031 9.257812 -9.773438 9.1875 -9.890625 C 9.125 -10.003906 9.039062 -10.113281 8.9375 -10.21875 C 8.84375 -10.320312 8.738281 -10.375 8.625 -10.375 L 5.359375 -10.375 L 5.359375 -0.578125 C 5.359375 -0.453125 5.453125 -0.359375 5.640625 -0.296875 C 5.835938 -0.242188 6.066406 -0.21875 6.328125 -0.21875 L 6.328125 0 L 3.875 0 Z M 3.875 -0.21875 "/></g></g></g><g fill="#ffffff" fill-opacity="1"><g transform="translate(111.702915, 256.691527)"><g><path d="M 5.21875 0.140625 C 4.539062 0.140625 3.9375 -0.015625 3.40625 -0.328125 C 2.875 -0.648438 2.457031 -1.09375 2.15625 -1.65625 C 1.851562 -2.21875 1.703125 -2.878906 1.703125 -3.640625 L 1.703125 -10.0625 C 1.691406 -10.1875 1.597656 -10.269531 1.421875 -10.3125 C 1.242188 -10.351562 1.082031 -10.378906 0.9375 -10.390625 L 0.75 -10.390625 L 0.75 -10.625 L 3.203125 -10.625 L 3.203125 -10.390625 L 3.015625 -10.390625 C 2.878906 -10.378906 2.71875 -10.351562 2.53125 -10.3125 C 2.351562 -10.269531 2.257812 -10.179688 2.25 -10.046875 L 2.25 -3.640625 C 2.25 -3.085938 2.34375 -2.570312 2.53125 -2.09375 C 2.71875 -1.625 2.96875 -1.226562 3.28125 -0.90625 C 3.59375 -0.613281 3.898438 -0.398438 4.203125 -0.265625 C 4.515625 -0.140625 4.851562 -0.078125 5.21875 -0.078125 C 5.832031 -0.078125 6.375 -0.226562 6.84375 -0.53125 C 7.3125 -0.84375 7.679688 -1.269531 7.953125 -1.8125 C 8.222656 -2.351562 8.359375 -2.960938 8.359375 -3.640625 L 8.359375 -10.03125 C 8.359375 -10.175781 8.265625 -10.269531 8.078125 -10.3125 C 7.890625 -10.351562 7.726562 -10.378906 7.59375 -10.390625 L 7.40625 -10.390625 L 7.40625 -10.625 L 9.53125 -10.625 L 9.53125 -10.390625 L 9.34375 -10.390625 C 9.21875 -10.378906 9.054688 -10.351562 8.859375 -10.3125 C 8.671875 -10.269531 8.578125 -10.175781 8.578125 -10.03125 L 8.578125 -3.640625 C 8.578125 -2.910156 8.429688 -2.257812 8.140625 -1.6875 C 7.847656 -1.125 7.445312 -0.675781 6.9375 -0.34375 C 6.4375 -0.0195312 5.863281 0.140625 5.21875 0.140625 Z M 5.21875 0.140625 "/></g></g></g><g fill="#ffffff" fill-opacity="1"><g transform="translate(121.969947, 256.691527)"><g><path d="M 3.046875 0 L 0.75 0 L 0.75 -0.203125 L 0.9375 -0.203125 C 1.082031 -0.210938 1.242188 -0.242188 1.421875 -0.296875 C 1.609375 -0.347656 1.703125 -0.4375 1.703125 -0.5625 L 1.703125 -10.015625 C 1.703125 -10.148438 1.609375 -10.238281 1.421875 -10.28125 C 1.242188 -10.332031 1.082031 -10.363281 0.9375 -10.375 L 0.75 -10.375 L 0.75 -10.59375 L 4.328125 -10.59375 C 4.921875 -10.59375 5.476562 -10.453125 6 -10.171875 C 6.519531 -9.898438 6.976562 -9.519531 7.375 -9.03125 C 7.769531 -8.550781 8.078125 -7.988281 8.296875 -7.34375 C 8.523438 -6.707031 8.640625 -6.023438 8.640625 -5.296875 C 8.640625 -4.566406 8.523438 -3.878906 8.296875 -3.234375 C 8.078125 -2.597656 7.769531 -2.035156 7.375 -1.546875 C 6.976562 -1.054688 6.519531 -0.671875 6 -0.390625 C 5.476562 -0.117188 4.921875 0.015625 4.328125 0.015625 L 3.046875 0.015625 Z M 4.328125 -0.203125 C 4.367188 -0.203125 4.410156 -0.203125 4.453125 -0.203125 C 4.503906 -0.210938 4.550781 -0.21875 4.59375 -0.21875 C 5.082031 -0.28125 5.535156 -0.457031 5.953125 -0.75 C 6.378906 -1.050781 6.753906 -1.4375 7.078125 -1.90625 C 7.410156 -2.375 7.664062 -2.894531 7.84375 -3.46875 C 8.019531 -4.050781 8.109375 -4.660156 8.109375 -5.296875 C 8.109375 -5.941406 8.007812 -6.566406 7.8125 -7.171875 C 7.625 -7.773438 7.351562 -8.316406 7 -8.796875 C 6.65625 -9.285156 6.253906 -9.664062 5.796875 -9.9375 C 5.335938 -10.21875 4.847656 -10.363281 4.328125 -10.375 L 4.328125 -10.359375 L 3.046875 -10.359375 L 3.046875 -10.375 L 3.015625 -10.375 C 2.878906 -10.363281 2.71875 -10.332031 2.53125 -10.28125 C 2.34375 -10.238281 2.25 -10.148438 2.25 -10.015625 L 2.25 -0.5625 C 2.25 -0.4375 2.34375 -0.347656 2.53125 -0.296875 C 2.71875 -0.242188 2.878906 -0.210938 3.015625 -0.203125 Z M 4.328125 -0.203125 "/></g></g></g><g fill="#ffffff" fill-opacity="1"><g transform="translate(131.35266, 256.691527)"><g><path d="M 0.75 -0.203125 L 0.9375 -0.203125 C 1.070312 -0.210938 1.234375 -0.242188 1.421875 -0.296875 C 1.609375 -0.347656 1.703125 -0.4375 1.703125 -0.5625 L 1.703125 -10.015625 C 1.691406 -10.148438 1.59375 -10.238281 1.40625 -10.28125 C 1.226562 -10.332031 1.070312 -10.363281 0.9375 -10.375 L 0.75 -10.375 L 0.75 -10.59375 L 3.203125 -10.59375 L 3.203125 -10.375 L 3.015625 -10.375 C 2.878906 -10.363281 2.71875 -10.332031 2.53125 -10.28125 C 2.34375 -10.238281 2.25 -10.148438 2.25 -10.015625 L 2.25 -0.5625 C 2.25 -0.4375 2.34375 -0.347656 2.53125 -0.296875 C 2.71875 -0.242188 2.878906 -0.210938 3.015625 -0.203125 L 3.203125 -0.203125 L 3.203125 0 L 0.75 0 Z M 0.75 -0.203125 "/></g></g></g><g fill="#ffffff" fill-opacity="1"><g transform="translate(135.309592, 256.691527)"><g><path d="M 5.21875 0.21875 C 4.613281 0.21875 4.039062 0.0703125 3.5 -0.21875 C 2.957031 -0.507812 2.476562 -0.910156 2.0625 -1.421875 C 1.644531 -1.941406 1.320312 -2.523438 1.09375 -3.171875 C 0.863281 -3.828125 0.75 -4.507812 0.75 -5.21875 C 0.75 -5.9375 0.863281 -6.625 1.09375 -7.28125 C 1.320312 -7.9375 1.644531 -8.515625 2.0625 -9.015625 C 2.476562 -9.523438 2.957031 -9.925781 3.5 -10.21875 C 4.039062 -10.519531 4.613281 -10.671875 5.21875 -10.671875 L 5.359375 -10.671875 C 5.972656 -10.671875 6.550781 -10.519531 7.09375 -10.21875 C 7.632812 -9.925781 8.109375 -9.519531 8.515625 -9 C 8.929688 -8.488281 9.253906 -7.90625 9.484375 -7.25 C 9.710938 -6.601562 9.828125 -5.925781 9.828125 -5.21875 C 9.828125 -4.507812 9.710938 -3.828125 9.484375 -3.171875 C 9.253906 -2.515625 8.9375 -1.929688 8.53125 -1.421875 C 8.125 -0.910156 7.648438 -0.507812 7.109375 -0.21875 C 6.566406 0.0703125 5.984375 0.21875 5.359375 0.21875 Z M 3.9375 -0.296875 C 4.84375 0.078125 5.738281 0.078125 6.625 -0.296875 C 7.144531 -0.546875 7.601562 -0.921875 8 -1.421875 C 8.394531 -1.921875 8.703125 -2.5 8.921875 -3.15625 C 9.148438 -3.820312 9.265625 -4.507812 9.265625 -5.21875 C 9.265625 -6.007812 9.128906 -6.757812 8.859375 -7.46875 C 8.585938 -8.175781 8.21875 -8.785156 7.75 -9.296875 C 7.28125 -9.804688 6.753906 -10.144531 6.171875 -10.3125 C 6.015625 -10.351562 5.863281 -10.382812 5.71875 -10.40625 C 5.570312 -10.425781 5.425781 -10.4375 5.28125 -10.4375 C 5.132812 -10.4375 4.988281 -10.425781 4.84375 -10.40625 C 4.695312 -10.394531 4.550781 -10.363281 4.40625 -10.3125 C 3.820312 -10.132812 3.289062 -9.789062 2.8125 -9.28125 C 2.34375 -8.769531 1.972656 -8.160156 1.703125 -7.453125 C 1.429688 -6.753906 1.296875 -6.007812 1.296875 -5.21875 C 1.296875 -4.507812 1.410156 -3.820312 1.640625 -3.15625 C 1.867188 -2.5 2.179688 -1.921875 2.578125 -1.421875 C 2.984375 -0.921875 3.4375 -0.546875 3.9375 -0.296875 Z M 3.9375 -0.296875 "/></g></g></g><g fill="#ffffff" fill-opacity="1"><g transform="translate(145.87639, 256.691527)"><g/></g></g><g fill="#ffffff" fill-opacity="1"><g transform="translate(151.871732, 256.691527)"><g><path d="M 3.046875 0 L 0.75 0 L 0.75 -0.203125 L 0.9375 -0.203125 C 1.082031 -0.210938 1.242188 -0.242188 1.421875 -0.296875 C 1.609375 -0.347656 1.703125 -0.4375 1.703125 -0.5625 L 1.703125 -10.015625 C 1.703125 -10.148438 1.609375 -10.238281 1.421875 -10.28125 C 1.242188 -10.332031 1.082031 -10.363281 0.9375 -10.375 L 0.75 -10.375 L 0.75 -10.59375 L 4.328125 -10.59375 C 4.921875 -10.59375 5.476562 -10.453125 6 -10.171875 C 6.519531 -9.898438 6.976562 -9.519531 7.375 -9.03125 C 7.769531 -8.550781 8.078125 -7.988281 8.296875 -7.34375 C 8.523438 -6.707031 8.640625 -6.023438 8.640625 -5.296875 C 8.640625 -4.566406 8.523438 -3.878906 8.296875 -3.234375 C 8.078125 -2.597656 7.769531 -2.035156 7.375 -1.546875 C 6.976562 -1.054688 6.519531 -0.671875 6 -0.390625 C 5.476562 -0.117188 4.921875 0.015625 4.328125 0.015625 L 3.046875 0.015625 Z M 4.328125 -0.203125 C 4.367188 -0.203125 4.410156 -0.203125 4.453125 -0.203125 C 4.503906 -0.210938 4.550781 -0.21875 4.59375 -0.21875 C 5.082031 -0.28125 5.535156 -0.457031 5.953125 -0.75 C 6.378906 -1.050781 6.753906 -1.4375 7.078125 -1.90625 C 7.410156 -2.375 7.664062 -2.894531 7.84375 -3.46875 C 8.019531 -4.050781 8.109375 -4.660156 8.109375 -5.296875 C 8.109375 -5.941406 8.007812 -6.566406 7.8125 -7.171875 C 7.625 -7.773438 7.351562 -8.316406 7 -8.796875 C 6.65625 -9.285156 6.253906 -9.664062 5.796875 -9.9375 C 5.335938 -10.21875 4.847656 -10.363281 4.328125 -10.375 L 4.328125 -10.359375 L 3.046875 -10.359375 L 3.046875 -10.375 L 3.015625 -10.375 C 2.878906 -10.363281 2.71875 -10.332031 2.53125 -10.28125 C 2.34375 -10.238281 2.25 -10.148438 2.25 -10.015625 L 2.25 -0.5625 C 2.25 -0.4375 2.34375 -0.347656 2.53125 -0.296875 C 2.71875 -0.242188 2.878906 -0.210938 3.015625 -0.203125 Z M 4.328125 -0.203125 "/></g></g></g><g fill="#ffffff" fill-opacity="1"><g transform="translate(161.254445, 256.691527)"><g><path d="M 0.75 -0.203125 L 0.9375 -0.203125 C 1.070312 -0.210938 1.226562 -0.242188 1.40625 -0.296875 C 1.59375 -0.347656 1.6875 -0.4375 1.6875 -0.5625 L 1.6875 -10.015625 C 1.6875 -10.109375 1.640625 -10.179688 1.546875 -10.234375 C 1.453125 -10.285156 1.34375 -10.316406 1.21875 -10.328125 C 1.09375 -10.347656 0.984375 -10.359375 0.890625 -10.359375 C 0.796875 -10.367188 0.75 -10.375 0.75 -10.375 L 0.75 -10.609375 L 6.546875 -10.609375 L 6.546875 -9.6875 L 6.4375 -9.6875 C 6.425781 -9.707031 6.382812 -9.773438 6.3125 -9.890625 C 6.238281 -10.003906 6.148438 -10.113281 6.046875 -10.21875 C 5.953125 -10.320312 5.851562 -10.375 5.75 -10.375 L 2.234375 -10.375 L 2.234375 -6 L 5.78125 -6 C 5.851562 -6 5.921875 -6.054688 5.984375 -6.171875 C 6.054688 -6.296875 6.09375 -6.359375 6.09375 -6.359375 L 6.1875 -6.359375 L 6.1875 -5.421875 L 6.09375 -5.421875 C 6.09375 -5.421875 6.054688 -5.476562 5.984375 -5.59375 C 5.921875 -5.71875 5.851562 -5.78125 5.78125 -5.78125 L 2.234375 -5.78125 L 2.234375 -0.203125 L 6.078125 -0.203125 C 6.222656 -0.203125 6.359375 -0.257812 6.484375 -0.375 C 6.617188 -0.488281 6.726562 -0.601562 6.8125 -0.71875 C 6.90625 -0.84375 6.957031 -0.914062 6.96875 -0.9375 L 7.234375 -0.9375 L 6.640625 0 L 0.75 0 Z M 0.75 -0.203125 "/></g></g></g><g fill="#ffffff" fill-opacity="1"><g transform="translate(169.228253, 256.691527)"><g/></g></g><g fill="#ffffff" fill-opacity="1"><g transform="translate(175.223595, 256.691527)"><g><path d="M 0.75 -0.203125 C 0.957031 -0.203125 1.171875 -0.21875 1.390625 -0.25 C 1.617188 -0.289062 1.769531 -0.394531 1.84375 -0.5625 L 5.75 -10.609375 L 5.96875 -10.609375 L 5.96875 -10.59375 L 9.875 -0.53125 C 9.945312 -0.394531 10.070312 -0.304688 10.25 -0.265625 C 10.4375 -0.222656 10.640625 -0.203125 10.859375 -0.203125 L 10.859375 0 L 8.40625 0 L 8.40625 -0.203125 C 8.644531 -0.203125 8.863281 -0.222656 9.0625 -0.265625 C 9.257812 -0.316406 9.328125 -0.414062 9.265625 -0.5625 L 7.71875 -4.59375 L 3.640625 -4.59375 L 2.078125 -0.5625 L 2.09375 -0.5625 C 2.0625 -0.46875 2.101562 -0.390625 2.21875 -0.328125 C 2.34375 -0.273438 2.5 -0.238281 2.6875 -0.21875 C 2.875 -0.207031 3.046875 -0.203125 3.203125 -0.203125 L 3.203125 0 L 0.75 0 Z M 7.640625 -4.796875 L 5.6875 -9.84375 L 3.734375 -4.796875 Z M 7.640625 -4.796875 "/></g></g></g><g fill="#ffffff" fill-opacity="1"><g transform="translate(186.824584, 256.691527)"><g><path d="M 0.359375 -0.21875 C 0.617188 -0.21875 0.84375 -0.242188 1.03125 -0.296875 C 1.21875 -0.359375 1.3125 -0.453125 1.3125 -0.578125 L 1.3125 -10.03125 C 1.3125 -10.164062 1.21875 -10.253906 1.03125 -10.296875 C 0.84375 -10.347656 0.617188 -10.375 0.359375 -10.375 L 0.359375 -10.609375 L 3.90625 -10.609375 C 4.5 -10.609375 5.039062 -10.492188 5.53125 -10.265625 C 6.019531 -10.035156 6.410156 -9.707031 6.703125 -9.28125 C 6.992188 -8.851562 7.140625 -8.335938 7.140625 -7.734375 C 7.140625 -7.210938 7.023438 -6.742188 6.796875 -6.328125 C 6.566406 -5.921875 6.253906 -5.585938 5.859375 -5.328125 C 5.460938 -5.066406 5.015625 -4.894531 4.515625 -4.8125 C 4.890625 -4.625 5.226562 -4.410156 5.53125 -4.171875 C 5.832031 -3.929688 6.050781 -3.53125 6.1875 -2.96875 C 6.238281 -2.726562 6.3125 -2.453125 6.40625 -2.140625 C 6.5 -1.835938 6.613281 -1.539062 6.75 -1.25 C 6.894531 -0.957031 7.070312 -0.710938 7.28125 -0.515625 C 7.5 -0.316406 7.75 -0.21875 8.03125 -0.21875 L 8.03125 0 L 7.15625 0 C 6.78125 -0.289062 6.5 -0.59375 6.3125 -0.90625 C 6.125 -1.21875 5.984375 -1.550781 5.890625 -1.90625 C 5.796875 -2.269531 5.6875 -2.671875 5.5625 -3.109375 C 5.5 -3.359375 5.375 -3.609375 5.1875 -3.859375 C 5.007812 -4.117188 4.804688 -4.332031 4.578125 -4.5 C 4.347656 -4.675781 4.128906 -4.765625 3.921875 -4.765625 L 1.859375 -4.765625 L 1.859375 -0.578125 C 1.859375 -0.453125 1.953125 -0.359375 2.140625 -0.296875 C 2.335938 -0.242188 2.5625 -0.21875 2.8125 -0.21875 L 2.8125 0 L 0.359375 0 Z M 3.90625 -4.984375 C 4.40625 -4.984375 4.851562 -5.109375 5.25 -5.359375 C 5.65625 -5.609375 5.976562 -5.941406 6.21875 -6.359375 C 6.46875 -6.773438 6.59375 -7.234375 6.59375 -7.734375 C 6.59375 -8.234375 6.46875 -8.679688 6.21875 -9.078125 C 5.976562 -9.472656 5.65625 -9.785156 5.25 -10.015625 C 4.851562 -10.253906 4.40625 -10.375 3.90625 -10.375 L 2.625 -10.375 C 2.5 -10.363281 2.335938 -10.335938 2.140625 -10.296875 C 1.953125 -10.253906 1.859375 -10.160156 1.859375 -10.015625 L 1.859375 -4.984375 Z M 3.90625 -4.984375 "/></g></g></g><g fill="#ffffff" fill-opacity="1"><g transform="translate(195.817603, 256.691527)"><g><path d="M 5.21875 0.125 C 4.613281 0.125 4.039062 -0.0195312 3.5 -0.3125 C 2.957031 -0.613281 2.476562 -1.019531 2.0625 -1.53125 C 1.644531 -2.050781 1.320312 -2.632812 1.09375 -3.28125 C 0.863281 -3.9375 0.75 -4.617188 0.75 -5.328125 C 0.75 -6.046875 0.863281 -6.734375 1.09375 -7.390625 C 1.320312 -8.046875 1.644531 -8.625 2.0625 -9.125 C 2.476562 -9.632812 2.957031 -10.035156 3.5 -10.328125 C 4.039062 -10.617188 4.613281 -10.765625 5.21875 -10.765625 L 5.359375 -10.765625 C 5.972656 -10.765625 6.550781 -10.617188 7.09375 -10.328125 C 7.632812 -10.035156 8.109375 -9.628906 8.515625 -9.109375 C 8.929688 -8.597656 9.253906 -8.015625 9.484375 -7.359375 C 9.710938 -6.710938 9.828125 -6.035156 9.828125 -5.328125 C 9.828125 -4.554688 9.691406 -3.816406 9.421875 -3.109375 C 9.148438 -2.398438 8.773438 -1.785156 8.296875 -1.265625 C 7.816406 -0.742188 7.265625 -0.363281 6.640625 -0.125 C 6.703125 -0.125 6.765625 -0.125 6.828125 -0.125 C 6.898438 -0.125 6.960938 -0.128906 7.015625 -0.140625 C 7.765625 -0.222656 8.503906 -0.519531 9.234375 -1.03125 C 9.242188 -1.039062 9.25 -1.046875 9.25 -1.046875 C 9.257812 -1.046875 9.265625 -1.046875 9.265625 -1.046875 L 9.375 -0.875 L 9.375 -0.859375 L 8.625 0.046875 C 8.613281 0.046875 8.472656 0.0546875 8.203125 0.078125 C 7.929688 0.109375 7.601562 0.128906 7.21875 0.140625 Z M 5.453125 -0.125 C 5.640625 -0.144531 5.820312 -0.171875 6 -0.203125 C 6.113281 -0.222656 6.222656 -0.25 6.328125 -0.28125 C 6.429688 -0.320312 6.53125 -0.363281 6.625 -0.40625 C 7.144531 -0.65625 7.601562 -1.03125 8 -1.53125 C 8.394531 -2.03125 8.703125 -2.609375 8.921875 -3.265625 C 9.148438 -3.929688 9.265625 -4.617188 9.265625 -5.328125 C 9.265625 -6.117188 9.128906 -6.867188 8.859375 -7.578125 C 8.585938 -8.285156 8.21875 -8.894531 7.75 -9.40625 C 7.28125 -9.914062 6.753906 -10.253906 6.171875 -10.421875 C 6.015625 -10.460938 5.863281 -10.492188 5.71875 -10.515625 C 5.570312 -10.535156 5.425781 -10.546875 5.28125 -10.546875 C 5.132812 -10.546875 4.988281 -10.535156 4.84375 -10.515625 C 4.695312 -10.503906 4.550781 -10.472656 4.40625 -10.421875 C 3.820312 -10.242188 3.289062 -9.898438 2.8125 -9.390625 C 2.34375 -8.878906 1.972656 -8.269531 1.703125 -7.5625 C 1.429688 -6.863281 1.296875 -6.117188 1.296875 -5.328125 C 1.296875 -4.617188 1.410156 -3.929688 1.640625 -3.265625 C 1.867188 -2.609375 2.179688 -2.03125 2.578125 -1.53125 C 2.984375 -1.03125 3.4375 -0.65625 3.9375 -0.40625 C 4.195312 -0.300781 4.453125 -0.222656 4.703125 -0.171875 C 4.953125 -0.117188 5.203125 -0.101562 5.453125 -0.125 Z M 5.453125 -0.125 "/></g></g></g><g fill="#ffffff" fill-opacity="1"><g transform="translate(206.384401, 256.691527)"><g><path d="M 5.21875 0.140625 C 4.539062 0.140625 3.9375 -0.015625 3.40625 -0.328125 C 2.875 -0.648438 2.457031 -1.09375 2.15625 -1.65625 C 1.851562 -2.21875 1.703125 -2.878906 1.703125 -3.640625 L 1.703125 -10.0625 C 1.691406 -10.1875 1.597656 -10.269531 1.421875 -10.3125 C 1.242188 -10.351562 1.082031 -10.378906 0.9375 -10.390625 L 0.75 -10.390625 L 0.75 -10.625 L 3.203125 -10.625 L 3.203125 -10.390625 L 3.015625 -10.390625 C 2.878906 -10.378906 2.71875 -10.351562 2.53125 -10.3125 C 2.351562 -10.269531 2.257812 -10.179688 2.25 -10.046875 L 2.25 -3.640625 C 2.25 -3.085938 2.34375 -2.570312 2.53125 -2.09375 C 2.71875 -1.625 2.96875 -1.226562 3.28125 -0.90625 C 3.59375 -0.613281 3.898438 -0.398438 4.203125 -0.265625 C 4.515625 -0.140625 4.851562 -0.078125 5.21875 -0.078125 C 5.832031 -0.078125 6.375 -0.226562 6.84375 -0.53125 C 7.3125 -0.84375 7.679688 -1.269531 7.953125 -1.8125 C 8.222656 -2.351562 8.359375 -2.960938 8.359375 -3.640625 L 8.359375 -10.03125 C 8.359375 -10.175781 8.265625 -10.269531 8.078125 -10.3125 C 7.890625 -10.351562 7.726562 -10.378906 7.59375 -10.390625 L 7.40625 -10.390625 L 7.40625 -10.625 L 9.53125 -10.625 L 9.53125 -10.390625 L 9.34375 -10.390625 C 9.21875 -10.378906 9.054688 -10.351562 8.859375 -10.3125 C 8.671875 -10.269531 8.578125 -10.175781 8.578125 -10.03125 L 8.578125 -3.640625 C 8.578125 -2.910156 8.429688 -2.257812 8.140625 -1.6875 C 7.847656 -1.125 7.445312 -0.675781 6.9375 -0.34375 C 6.4375 -0.0195312 5.863281 0.140625 5.21875 0.140625 Z M 5.21875 0.140625 "/></g></g></g><g fill="#ffffff" fill-opacity="1"><g transform="translate(216.651433, 256.691527)"><g><path d="M 0.75 -0.203125 L 0.9375 -0.203125 C 1.070312 -0.210938 1.234375 -0.242188 1.421875 -0.296875 C 1.609375 -0.347656 1.703125 -0.4375 1.703125 -0.5625 L 1.703125 -10.015625 C 1.691406 -10.148438 1.59375 -10.238281 1.40625 -10.28125 C 1.226562 -10.332031 1.070312 -10.363281 0.9375 -10.375 L 0.75 -10.375 L 0.75 -10.59375 L 3.203125 -10.59375 L 3.203125 -10.375 L 3.015625 -10.375 C 2.878906 -10.363281 2.71875 -10.332031 2.53125 -10.28125 C 2.34375 -10.238281 2.25 -10.148438 2.25 -10.015625 L 2.25 -0.5625 C 2.25 -0.4375 2.34375 -0.347656 2.53125 -0.296875 C 2.71875 -0.242188 2.878906 -0.210938 3.015625 -0.203125 L 3.203125 -0.203125 L 3.203125 0 L 0.75 0 Z M 0.75 -0.203125 "/></g></g></g><g fill="#ffffff" fill-opacity="1"><g transform="translate(220.608365, 256.691527)"><g><path d="M 3.875 -0.21875 C 4.132812 -0.21875 4.359375 -0.242188 4.546875 -0.296875 C 4.734375 -0.359375 4.828125 -0.453125 4.828125 -0.578125 L 4.828125 -10.375 L 1.5625 -10.375 C 1.445312 -10.375 1.335938 -10.320312 1.234375 -10.21875 C 1.140625 -10.113281 1.054688 -10.003906 0.984375 -9.890625 C 0.921875 -9.773438 0.882812 -9.707031 0.875 -9.6875 L 0.75 -9.6875 L 0.75 -10.609375 L 9.4375 -10.609375 L 9.4375 -9.6875 L 9.3125 -9.6875 C 9.300781 -9.707031 9.257812 -9.773438 9.1875 -9.890625 C 9.125 -10.003906 9.039062 -10.113281 8.9375 -10.21875 C 8.84375 -10.320312 8.738281 -10.375 8.625 -10.375 L 5.359375 -10.375 L 5.359375 -0.578125 C 5.359375 -0.453125 5.453125 -0.359375 5.640625 -0.296875 C 5.835938 -0.242188 6.066406 -0.21875 6.328125 -0.21875 L 6.328125 0 L 3.875 0 Z M 3.875 -0.21875 "/></g></g></g><g fill="#ffffff" fill-opacity="1"><g transform="translate(230.785458, 256.691527)"><g><path d="M 0.75 -0.203125 L 0.9375 -0.203125 C 1.070312 -0.210938 1.226562 -0.242188 1.40625 -0.296875 C 1.59375 -0.347656 1.6875 -0.4375 1.6875 -0.5625 L 1.6875 -10.015625 C 1.6875 -10.109375 1.640625 -10.179688 1.546875 -10.234375 C 1.453125 -10.285156 1.34375 -10.316406 1.21875 -10.328125 C 1.09375 -10.347656 0.984375 -10.359375 0.890625 -10.359375 C 0.796875 -10.367188 0.75 -10.375 0.75 -10.375 L 0.75 -10.609375 L 6.546875 -10.609375 L 6.546875 -9.6875 L 6.4375 -9.6875 C 6.425781 -9.707031 6.382812 -9.773438 6.3125 -9.890625 C 6.238281 -10.003906 6.148438 -10.113281 6.046875 -10.21875 C 5.953125 -10.320312 5.851562 -10.375 5.75 -10.375 L 2.234375 -10.375 L 2.234375 -6 L 5.78125 -6 C 5.851562 -6 5.921875 -6.054688 5.984375 -6.171875 C 6.054688 -6.296875 6.09375 -6.359375 6.09375 -6.359375 L 6.1875 -6.359375 L 6.1875 -5.421875 L 6.09375 -5.421875 C 6.09375 -5.421875 6.054688 -5.476562 5.984375 -5.59375 C 5.921875 -5.71875 5.851562 -5.78125 5.78125 -5.78125 L 2.234375 -5.78125 L 2.234375 -0.203125 L 6.078125 -0.203125 C 6.222656 -0.203125 6.359375 -0.257812 6.484375 -0.375 C 6.617188 -0.488281 6.726562 -0.601562 6.8125 -0.71875 C 6.90625 -0.84375 6.957031 -0.914062 6.96875 -0.9375 L 7.234375 -0.9375 L 6.640625 0 L 0.75 0 Z M 0.75 -0.203125 "/></g></g></g><g fill="#ffffff" fill-opacity="1"><g transform="translate(238.759265, 256.691527)"><g><path d="M 5.21875 0.1875 C 4.601562 0.1875 4.023438 0.046875 3.484375 -0.234375 C 2.941406 -0.515625 2.460938 -0.898438 2.046875 -1.390625 C 1.640625 -1.890625 1.320312 -2.46875 1.09375 -3.125 C 0.863281 -3.789062 0.75 -4.5 0.75 -5.25 C 0.75 -6 0.863281 -6.703125 1.09375 -7.359375 C 1.320312 -8.023438 1.640625 -8.601562 2.046875 -9.09375 C 2.460938 -9.59375 2.941406 -9.984375 3.484375 -10.265625 C 4.023438 -10.546875 4.601562 -10.6875 5.21875 -10.6875 C 5.863281 -10.6875 6.460938 -10.550781 7.015625 -10.28125 L 6.984375 -10.3125 C 7.265625 -10.1875 7.523438 -10.054688 7.765625 -9.921875 C 8.003906 -9.785156 8.195312 -9.671875 8.34375 -9.578125 C 8.488281 -9.492188 8.5625 -9.453125 8.5625 -9.453125 L 8.796875 -8.453125 L 8.8125 -8.453125 L 8.609375 -8.34375 C 8.398438 -8.8125 8.113281 -9.203125 7.75 -9.515625 C 7.394531 -9.828125 6.992188 -10.0625 6.546875 -10.21875 C 6.109375 -10.382812 5.664062 -10.46875 5.21875 -10.46875 C 4.675781 -10.46875 4.164062 -10.320312 3.6875 -10.03125 C 3.21875 -9.75 2.800781 -9.359375 2.4375 -8.859375 C 2.082031 -8.367188 1.800781 -7.8125 1.59375 -7.1875 C 1.394531 -6.570312 1.296875 -5.925781 1.296875 -5.25 C 1.296875 -4.613281 1.382812 -3.992188 1.5625 -3.390625 C 1.75 -2.796875 2.003906 -2.257812 2.328125 -1.78125 C 2.660156 -1.3125 3.046875 -0.921875 3.484375 -0.609375 C 3.929688 -0.304688 4.40625 -0.117188 4.90625 -0.046875 C 4.957031 -0.0351562 5.007812 -0.03125 5.0625 -0.03125 C 5.113281 -0.03125 5.164062 -0.03125 5.21875 -0.03125 C 5.925781 -0.03125 6.59375 -0.242188 7.21875 -0.671875 C 7.851562 -1.097656 8.367188 -1.679688 8.765625 -2.421875 L 8.953125 -2.328125 L 8.671875 -1.15625 C 8.671875 -1.15625 8.582031 -1.101562 8.40625 -1 C 8.238281 -0.894531 8.015625 -0.765625 7.734375 -0.609375 C 7.460938 -0.460938 7.164062 -0.320312 6.84375 -0.1875 L 6.859375 -0.1875 C 6.347656 0.0625 5.800781 0.1875 5.21875 0.1875 Z M 5.21875 0.1875 "/></g></g></g><g fill="#ffffff" fill-opacity="1"><g transform="translate(248.456736, 256.691527)"><g><path d="M 3.875 -0.21875 C 4.132812 -0.21875 4.359375 -0.242188 4.546875 -0.296875 C 4.734375 -0.359375 4.828125 -0.453125 4.828125 -0.578125 L 4.828125 -10.375 L 1.5625 -10.375 C 1.445312 -10.375 1.335938 -10.320312 1.234375 -10.21875 C 1.140625 -10.113281 1.054688 -10.003906 0.984375 -9.890625 C 0.921875 -9.773438 0.882812 -9.707031 0.875 -9.6875 L 0.75 -9.6875 L 0.75 -10.609375 L 9.4375 -10.609375 L 9.4375 -9.6875 L 9.3125 -9.6875 C 9.300781 -9.707031 9.257812 -9.773438 9.1875 -9.890625 C 9.125 -10.003906 9.039062 -10.113281 8.9375 -10.21875 C 8.84375 -10.320312 8.738281 -10.375 8.625 -10.375 L 5.359375 -10.375 L 5.359375 -0.578125 C 5.359375 -0.453125 5.453125 -0.359375 5.640625 -0.296875 C 5.835938 -0.242188 6.066406 -0.21875 6.328125 -0.21875 L 6.328125 0 L 3.875 0 Z M 3.875 -0.21875 "/></g></g></g><g fill="#ffffff" fill-opacity="1"><g transform="translate(258.633829, 256.691527)"><g><path d="M 5.21875 0.140625 C 4.539062 0.140625 3.9375 -0.015625 3.40625 -0.328125 C 2.875 -0.648438 2.457031 -1.09375 2.15625 -1.65625 C 1.851562 -2.21875 1.703125 -2.878906 1.703125 -3.640625 L 1.703125 -10.0625 C 1.691406 -10.1875 1.597656 -10.269531 1.421875 -10.3125 C 1.242188 -10.351562 1.082031 -10.378906 0.9375 -10.390625 L 0.75 -10.390625 L 0.75 -10.625 L 3.203125 -10.625 L 3.203125 -10.390625 L 3.015625 -10.390625 C 2.878906 -10.378906 2.71875 -10.351562 2.53125 -10.3125 C 2.351562 -10.269531 2.257812 -10.179688 2.25 -10.046875 L 2.25 -3.640625 C 2.25 -3.085938 2.34375 -2.570312 2.53125 -2.09375 C 2.71875 -1.625 2.96875 -1.226562 3.28125 -0.90625 C 3.59375 -0.613281 3.898438 -0.398438 4.203125 -0.265625 C 4.515625 -0.140625 4.851562 -0.078125 5.21875 -0.078125 C 5.832031 -0.078125 6.375 -0.226562 6.84375 -0.53125 C 7.3125 -0.84375 7.679688 -1.269531 7.953125 -1.8125 C 8.222656 -2.351562 8.359375 -2.960938 8.359375 -3.640625 L 8.359375 -10.03125 C 8.359375 -10.175781 8.265625 -10.269531 8.078125 -10.3125 C 7.890625 -10.351562 7.726562 -10.378906 7.59375 -10.390625 L 7.40625 -10.390625 L 7.40625 -10.625 L 9.53125 -10.625 L 9.53125 -10.390625 L 9.34375 -10.390625 C 9.21875 -10.378906 9.054688 -10.351562 8.859375 -10.3125 C 8.671875 -10.269531 8.578125 -10.175781 8.578125 -10.03125 L 8.578125 -3.640625 C 8.578125 -2.910156 8.429688 -2.257812 8.140625 -1.6875 C 7.847656 -1.125 7.445312 -0.675781 6.9375 -0.34375 C 6.4375 -0.0195312 5.863281 0.140625 5.21875 0.140625 Z M 5.21875 0.140625 "/></g></g></g><g fill="#ffffff" fill-opacity="1"><g transform="translate(268.900861, 256.691527)"><g><path d="M 0.359375 -0.21875 C 0.617188 -0.21875 0.84375 -0.242188 1.03125 -0.296875 C 1.21875 -0.359375 1.3125 -0.453125 1.3125 -0.578125 L 1.3125 -10.03125 C 1.3125 -10.164062 1.21875 -10.253906 1.03125 -10.296875 C 0.84375 -10.347656 0.617188 -10.375 0.359375 -10.375 L 0.359375 -10.609375 L 3.90625 -10.609375 C 4.5 -10.609375 5.039062 -10.492188 5.53125 -10.265625 C 6.019531 -10.035156 6.410156 -9.707031 6.703125 -9.28125 C 6.992188 -8.851562 7.140625 -8.335938 7.140625 -7.734375 C 7.140625 -7.210938 7.023438 -6.742188 6.796875 -6.328125 C 6.566406 -5.921875 6.253906 -5.585938 5.859375 -5.328125 C 5.460938 -5.066406 5.015625 -4.894531 4.515625 -4.8125 C 4.890625 -4.625 5.226562 -4.410156 5.53125 -4.171875 C 5.832031 -3.929688 6.050781 -3.53125 6.1875 -2.96875 C 6.238281 -2.726562 6.3125 -2.453125 6.40625 -2.140625 C 6.5 -1.835938 6.613281 -1.539062 6.75 -1.25 C 6.894531 -0.957031 7.070312 -0.710938 7.28125 -0.515625 C 7.5 -0.316406 7.75 -0.21875 8.03125 -0.21875 L 8.03125 0 L 7.15625 0 C 6.78125 -0.289062 6.5 -0.59375 6.3125 -0.90625 C 6.125 -1.21875 5.984375 -1.550781 5.890625 -1.90625 C 5.796875 -2.269531 5.6875 -2.671875 5.5625 -3.109375 C 5.5 -3.359375 5.375 -3.609375 5.1875 -3.859375 C 5.007812 -4.117188 4.804688 -4.332031 4.578125 -4.5 C 4.347656 -4.675781 4.128906 -4.765625 3.921875 -4.765625 L 1.859375 -4.765625 L 1.859375 -0.578125 C 1.859375 -0.453125 1.953125 -0.359375 2.140625 -0.296875 C 2.335938 -0.242188 2.5625 -0.21875 2.8125 -0.21875 L 2.8125 0 L 0.359375 0 Z M 3.90625 -4.984375 C 4.40625 -4.984375 4.851562 -5.109375 5.25 -5.359375 C 5.65625 -5.609375 5.976562 -5.941406 6.21875 -6.359375 C 6.46875 -6.773438 6.59375 -7.234375 6.59375 -7.734375 C 6.59375 -8.234375 6.46875 -8.679688 6.21875 -9.078125 C 5.976562 -9.472656 5.65625 -9.785156 5.25 -10.015625 C 4.851562 -10.253906 4.40625 -10.375 3.90625 -10.375 L 2.625 -10.375 C 2.5 -10.363281 2.335938 -10.335938 2.140625 -10.296875 C 1.953125 -10.253906 1.859375 -10.160156 1.859375 -10.015625 L 1.859375 -4.984375 Z M 3.90625 -4.984375 "/></g></g></g><g fill="#ffffff" fill-opacity="1"><g transform="translate(277.893891, 256.691527)"><g><path d="M 0.75 -0.203125 C 0.957031 -0.203125 1.171875 -0.21875 1.390625 -0.25 C 1.617188 -0.289062 1.769531 -0.394531 1.84375 -0.5625 L 5.75 -10.609375 L 5.96875 -10.609375 L 5.96875 -10.59375 L 9.875 -0.53125 C 9.945312 -0.394531 10.070312 -0.304688 10.25 -0.265625 C 10.4375 -0.222656 10.640625 -0.203125 10.859375 -0.203125 L 10.859375 0 L 8.40625 0 L 8.40625 -0.203125 C 8.644531 -0.203125 8.863281 -0.222656 9.0625 -0.265625 C 9.257812 -0.316406 9.328125 -0.414062 9.265625 -0.5625 L 7.71875 -4.59375 L 3.640625 -4.59375 L 2.078125 -0.5625 L 2.09375 -0.5625 C 2.0625 -0.46875 2.101562 -0.390625 2.21875 -0.328125 C 2.34375 -0.273438 2.5 -0.238281 2.6875 -0.21875 C 2.875 -0.207031 3.046875 -0.203125 3.203125 -0.203125 L 3.203125 0 L 0.75 0 Z M 7.640625 -4.796875 L 5.6875 -9.84375 L 3.734375 -4.796875 Z M 7.640625 -4.796875 "/></g></g></g></svg>